<mxfile host="app.diagrams.net" modified="2024-05-28T14:26:43.203Z" agent="Mozilla/5.0 (Windows NT 10.0; Win64; x64) AppleWebKit/537.36 (KHTML, like Gecko) Chrome/125.0.0.0 Safari/537.36" etag="Ma_Fk2VjIf6VsU1zY4py" version="24.4.9" type="device">
  <diagram id="C5RBs43oDa-KdzZeNtuy" name="Page-1">
    <mxGraphModel dx="1050" dy="557" grid="1" gridSize="10" guides="1" tooltips="1" connect="1" arrows="1" fold="1" page="1" pageScale="1" pageWidth="827" pageHeight="1169" math="0" shadow="0">
      <root>
        <mxCell id="WIyWlLk6GJQsqaUBKTNV-0" />
        <mxCell id="WIyWlLk6GJQsqaUBKTNV-1" parent="WIyWlLk6GJQsqaUBKTNV-0" />
        <mxCell id="L8_wQVxpYPg2bxadCbmA-2" style="edgeStyle=orthogonalEdgeStyle;rounded=0;orthogonalLoop=1;jettySize=auto;html=1;exitX=0.5;exitY=1;exitDx=0;exitDy=0;exitPerimeter=0;entryX=0.5;entryY=0;entryDx=0;entryDy=0;" edge="1" parent="WIyWlLk6GJQsqaUBKTNV-1" source="L8_wQVxpYPg2bxadCbmA-0" target="L8_wQVxpYPg2bxadCbmA-1">
          <mxGeometry relative="1" as="geometry" />
        </mxCell>
        <mxCell id="L8_wQVxpYPg2bxadCbmA-0" value="Bắt đầu" style="strokeWidth=2;html=1;shape=mxgraph.flowchart.start_1;whiteSpace=wrap;fontStyle=1;fontSize=14;" vertex="1" parent="WIyWlLk6GJQsqaUBKTNV-1">
          <mxGeometry x="40" y="40" width="100" height="60" as="geometry" />
        </mxCell>
        <mxCell id="L8_wQVxpYPg2bxadCbmA-10" style="edgeStyle=orthogonalEdgeStyle;rounded=0;orthogonalLoop=1;jettySize=auto;html=1;exitX=1;exitY=0.5;exitDx=0;exitDy=0;entryX=0;entryY=0.5;entryDx=0;entryDy=0;" edge="1" parent="WIyWlLk6GJQsqaUBKTNV-1" source="L8_wQVxpYPg2bxadCbmA-1" target="L8_wQVxpYPg2bxadCbmA-3">
          <mxGeometry relative="1" as="geometry" />
        </mxCell>
        <mxCell id="L8_wQVxpYPg2bxadCbmA-1" value="&lt;span style=&quot;font-size: 14px;&quot;&gt;&lt;b&gt;Nhập a, b&lt;/b&gt;&lt;/span&gt;" style="shape=parallelogram;html=1;strokeWidth=2;perimeter=parallelogramPerimeter;whiteSpace=wrap;rounded=0;arcSize=12;size=0.23;" vertex="1" parent="WIyWlLk6GJQsqaUBKTNV-1">
          <mxGeometry x="20" y="150" width="140" height="60" as="geometry" />
        </mxCell>
        <mxCell id="L8_wQVxpYPg2bxadCbmA-11" style="edgeStyle=orthogonalEdgeStyle;rounded=0;orthogonalLoop=1;jettySize=auto;html=1;exitX=1;exitY=0.5;exitDx=0;exitDy=0;entryX=0;entryY=0.5;entryDx=0;entryDy=0;" edge="1" parent="WIyWlLk6GJQsqaUBKTNV-1" source="L8_wQVxpYPg2bxadCbmA-3" target="L8_wQVxpYPg2bxadCbmA-5">
          <mxGeometry relative="1" as="geometry" />
        </mxCell>
        <mxCell id="L8_wQVxpYPg2bxadCbmA-3" value="Thực hiện&lt;div&gt;phép cộng a + b&lt;/div&gt;&lt;div&gt;và phép trừ a - b&lt;/div&gt;" style="rounded=0;whiteSpace=wrap;html=1;absoluteArcSize=1;arcSize=14;strokeWidth=2;fontStyle=1;fontSize=14;" vertex="1" parent="WIyWlLk6GJQsqaUBKTNV-1">
          <mxGeometry x="200" y="145" width="140" height="70" as="geometry" />
        </mxCell>
        <mxCell id="L8_wQVxpYPg2bxadCbmA-12" style="edgeStyle=orthogonalEdgeStyle;rounded=0;orthogonalLoop=1;jettySize=auto;html=1;exitX=1;exitY=0.5;exitDx=0;exitDy=0;entryX=0;entryY=0.5;entryDx=0;entryDy=0;" edge="1" parent="WIyWlLk6GJQsqaUBKTNV-1" source="L8_wQVxpYPg2bxadCbmA-5" target="L8_wQVxpYPg2bxadCbmA-6">
          <mxGeometry relative="1" as="geometry" />
        </mxCell>
        <mxCell id="L8_wQVxpYPg2bxadCbmA-5" value="Thực hiện&lt;div&gt;phép nhân a * b&lt;/div&gt;" style="rounded=0;whiteSpace=wrap;html=1;absoluteArcSize=1;arcSize=14;strokeWidth=2;fontStyle=1;fontSize=14;" vertex="1" parent="WIyWlLk6GJQsqaUBKTNV-1">
          <mxGeometry x="380" y="155" width="140" height="50" as="geometry" />
        </mxCell>
        <mxCell id="L8_wQVxpYPg2bxadCbmA-6" value="Thực hiện&lt;div&gt;phép chia a / b&lt;/div&gt;" style="rounded=0;whiteSpace=wrap;html=1;absoluteArcSize=1;arcSize=14;strokeWidth=2;fontStyle=1;fontSize=14;" vertex="1" parent="WIyWlLk6GJQsqaUBKTNV-1">
          <mxGeometry x="560" y="155" width="140" height="50" as="geometry" />
        </mxCell>
        <mxCell id="L8_wQVxpYPg2bxadCbmA-8" value="Kết thúc" style="strokeWidth=2;html=1;shape=mxgraph.flowchart.start_1;whiteSpace=wrap;fontStyle=1;fontSize=14;" vertex="1" parent="WIyWlLk6GJQsqaUBKTNV-1">
          <mxGeometry x="580" y="240" width="100" height="60" as="geometry" />
        </mxCell>
        <mxCell id="L8_wQVxpYPg2bxadCbmA-9" style="edgeStyle=orthogonalEdgeStyle;rounded=0;orthogonalLoop=1;jettySize=auto;html=1;exitX=0.5;exitY=1;exitDx=0;exitDy=0;entryX=0.5;entryY=0;entryDx=0;entryDy=0;entryPerimeter=0;" edge="1" parent="WIyWlLk6GJQsqaUBKTNV-1" source="L8_wQVxpYPg2bxadCbmA-6" target="L8_wQVxpYPg2bxadCbmA-8">
          <mxGeometry relative="1" as="geometry" />
        </mxCell>
      </root>
    </mxGraphModel>
  </diagram>
</mxfile>
